<?xml version="1.0" encoding="UTF-8" standalone="no"?>
<svg
   xmlns:dc="http://purl.org/dc/elements/1.1/"
   xmlns:cc="http://creativecommons.org/ns#"
   xmlns:rdf="http://www.w3.org/1999/02/22-rdf-syntax-ns#"
   xmlns:svg="http://www.w3.org/2000/svg"
   xmlns="http://www.w3.org/2000/svg"
   xmlns:sodipodi="http://sodipodi.sourceforge.net/DTD/sodipodi-0.dtd"
   xmlns:inkscape="http://www.inkscape.org/namespaces/inkscape"
   height="850"
   width="2940"
   viewBox="-5000 -5000 2940 850"
   version="1.1"
   id="svg8"
   sodipodi:docname="logo.svg"
   inkscape:version="1.0.2 (e86c870879, 2021-01-15)"
   inkscape:export-filename="/home/yutyo/Resimler/korsanpartilogo.png"
   inkscape:export-xdpi="6.4000001"
   inkscape:export-ydpi="6.4000001">
  <metadata
     id="metadata14">
    <rdf:RDF>
      <cc:Work
         rdf:about="">
        <dc:format>image/svg+xml</dc:format>
        <dc:type
           rdf:resource="http://purl.org/dc/dcmitype/StillImage" />
        <dc:title></dc:title>
      </cc:Work>
    </rdf:RDF>
  </metadata>
  <defs
     id="defs12">
    <rect
       x="-46.767128"
       y="165.44666"
       width="1090.873"
       height="506.2384"
       id="rect1498" />
    <rect
       x="-46.767128"
       y="165.44666"
       width="1090.873"
       height="506.2384"
       id="rect1606" />
    <rect
       x="-46.767128"
       y="165.44666"
       width="1090.873"
       height="506.2384"
       id="rect1498-7" />
    <rect
       x="-46.767128"
       y="165.44666"
       width="1090.873"
       height="506.2384"
       id="rect110" />
  </defs>
  <sodipodi:namedview
     pagecolor="#7e7e7e"
     bordercolor="#666666"
     borderopacity="1"
     objecttolerance="10"
     gridtolerance="10"
     guidetolerance="10"
     inkscape:pageopacity="1"
     inkscape:pageshadow="2"
     inkscape:window-width="1366"
     inkscape:window-height="715"
     id="namedview10"
     showgrid="false"
     inkscape:zoom="0.16566387"
     inkscape:cx="2056.8588"
     inkscape:cy="632.50373"
     inkscape:window-x="0"
     inkscape:window-y="25"
     inkscape:window-maximized="1"
     inkscape:current-layer="svg8"
     inkscape:document-rotation="0"
     inkscape:pagecheckerboard="true" />
  <g
     id="g161"
     transform="translate(-37.326842,-74.405927)">
    <g
       aria-label="Korsan Parti"
       transform="matrix(40.258531,0,0,40.258531,-3122.0146,-11574.716)"
       id="text1496"
       style="font-style:normal;font-variant:normal;font-weight:normal;font-stretch:normal;font-size:10.5833px;line-height:0.95;font-family:'Open Sans';-inkscape-font-specification:'Open Sans';white-space:pre;shape-inside:url(#rect1498);fill:#ffffff;fill-opacity:1;stroke:none">
      <path
         d="m -38.740059,174.34499 h -2.077711 l -2.260691,-3.63599 -0.773239,0.55484 v 3.08115 h -1.829802 v -8.62958 h 1.829802 v 3.94883 l 0.720116,-1.01524 2.337425,-2.93359 h 2.03049 l -3.01032,3.81898 z"
         style="font-style:normal;font-variant:normal;font-weight:bold;font-stretch:normal;font-size:12.0885px;font-family:'Open Sans';-inkscape-font-specification:'Open Sans Bold';letter-spacing:0px"
         id="path163" />
      <path
         d="m -36.361316,171.03364 q 0,0.97983 0.31874,1.48155 0.324642,0.50172 1.05066,0.50172 0.720116,0 1.032953,-0.49582 0.31874,-0.50172 0.31874,-1.48745 0,-0.97983 -0.31874,-1.46974 -0.318739,-0.48992 -1.044758,-0.48992 -0.720115,0 -1.038855,0.48992 -0.31874,0.48401 -0.31874,1.46974 z m 4.5627,0 q 0,1.61141 -0.849972,2.52041 -0.849973,0.909 -2.366938,0.909 -0.950317,0 -1.676335,-0.41318 -0.726018,-0.41909 -1.115589,-1.19823 -0.389571,-0.77914 -0.389571,-1.818 0,-1.61731 0.84407,-2.5145 0.84407,-0.89719 2.372841,-0.89719 0.950316,0 1.676335,0.41318 0.726018,0.41318 1.115589,1.18642 0.38957,0.77324 0.38957,1.81209 z"
         style="font-style:normal;font-variant:normal;font-weight:bold;font-stretch:normal;font-size:12.0885px;font-family:'Open Sans';-inkscape-font-specification:'Open Sans Bold';letter-spacing:0px"
         id="path165" />
      <path
         d="m -26.627948,167.62195 q 0.36596,0 0.607966,0.0531 l -0.135759,1.68814 q -0.218396,-0.059 -0.531233,-0.059 -0.861778,0 -1.34579,0.4427 -0.47811,0.44269 -0.47811,1.23954 v 3.35857 h -1.800289 v -6.59909 h 1.363498 l 0.265616,1.10969 h 0.08854 q 0.306935,-0.55485 0.826362,-0.89129 0.525331,-0.34235 1.1392,-0.34235 z"
         style="font-style:normal;font-variant:normal;font-weight:bold;font-stretch:normal;font-size:12.0885px;font-family:'Open Sans';-inkscape-font-specification:'Open Sans Bold';letter-spacing:0px"
         id="path167" />
      <path
         d="m -20.217738,172.38534 q 0,1.01524 -0.70831,1.54647 -0.702408,0.53124 -2.107224,0.53124 -0.720116,0 -1.227739,-0.10035 -0.507622,-0.0944 -0.950316,-0.28332 v -1.48745 q 0.50172,0.2361 1.127394,0.39547 0.631577,0.15937 1.109687,0.15937 0.979829,0 0.979829,-0.56665 0,-0.21249 -0.129857,-0.34235 -0.129857,-0.13576 -0.448596,-0.30103 -0.31874,-0.17118 -0.849973,-0.39547 -0.761434,-0.31874 -1.121492,-0.59026 -0.354155,-0.27152 -0.519428,-0.61978 -0.159369,-0.35415 -0.159369,-0.86768 0,-0.87948 0.678797,-1.35759 0.6847,-0.48401 1.936049,-0.48401 1.192323,0 2.319717,0.51942 l -0.543038,1.29857 q -0.495817,-0.21249 -0.926706,-0.34825 -0.430889,-0.13576 -0.879486,-0.13576 -0.796849,0 -0.796849,0.43089 0,0.24201 0.253811,0.41908 0.259714,0.17708 1.127394,0.52533 0.773239,0.31284 1.133297,0.58436 0.360058,0.27152 0.531233,0.62568 0.171175,0.35415 0.171175,0.84407 z"
         style="font-style:normal;font-variant:normal;font-weight:bold;font-stretch:normal;font-size:12.0885px;font-family:'Open Sans';-inkscape-font-specification:'Open Sans Bold';letter-spacing:0px"
         id="path169" />
      <path
         d="m -14.622084,174.34499 -0.348253,-0.89719 h -0.04722 q -0.454499,0.57255 -0.938511,0.79685 -0.47811,0.2184 -1.251349,0.2184 -0.950316,0 -1.499257,-0.54304 -0.543038,-0.54304 -0.543038,-1.54648 0,-1.05066 0.731921,-1.54648 0.737823,-0.50172 2.219373,-0.55484 l 1.145102,-0.0354 v -0.28922 q 0,-1.00344 -1.02705,-1.00344 -0.790947,0 -1.859316,0.47811 l -0.596161,-1.21594 q 1.1392,-0.59616 2.526308,-0.59616 1.328082,0 2.036392,0.57846 0.708311,0.57845 0.708311,1.75897 v 4.39742 z m -0.531233,-3.05754 -0.696505,0.0236 q -0.785045,0.0236 -1.168713,0.28333 -0.383668,0.25971 -0.383668,0.79095 0,0.76143 0.873583,0.76143 0.625674,0 0.997537,-0.36006 0.377766,-0.36006 0.377766,-0.95622 z"
         style="font-style:normal;font-variant:normal;font-weight:bold;font-stretch:normal;font-size:12.0885px;font-family:'Open Sans';-inkscape-font-specification:'Open Sans Bold';letter-spacing:0px"
         id="path171" />
      <path
         d="M -5.4199487,174.34499 H -7.220238 v -3.85439 q 0,-0.71421 -0.2538112,-1.06836 -0.2538113,-0.36006 -0.8086546,-0.36006 -0.7555312,0 -1.0919788,0.50762 -0.3364475,0.50172 -0.3364475,1.67043 v 3.10476 h -1.8002889 v -6.59909 h 1.375303 l 0.2420057,0.84407 h 0.100344 q 0.301032,-0.47811 0.8263623,-0.72011 0.5312329,-0.24791 1.2041279,-0.24791 1.1510047,0 1.7471661,0.62567 0.5961613,0.61977 0.5961613,1.79439 z"
         style="font-style:normal;font-variant:normal;font-weight:bold;font-stretch:normal;font-size:12.0885px;font-family:'Open Sans';-inkscape-font-specification:'Open Sans Bold';letter-spacing:0px"
         id="path173" />
      <path
         d="m 1.5451051,169.77639 h 0.602064 q 0.84407,0 1.2631538,-0.33054 0.4190837,-0.33645 0.4190837,-0.97393 0,-0.64338 -0.3541552,-0.95032 Q 3.1269987,167.21467 2.37737,167.21467 H 1.5451051 Z m 4.1318115,-1.3694 q 0,1.39301 -0.873583,2.13084 -0.8676804,0.73782 -2.4731843,0.73782 H 1.5451051 v 3.06934 h -1.82980224 v -8.62958 H 2.4718114 q 1.5700884,0 2.3846455,0.6788 0.8204597,0.67289 0.8204597,2.01278 z"
         style="font-style:normal;font-variant:normal;font-weight:bold;font-stretch:normal;font-size:12.0885px;font-family:'Open Sans';-inkscape-font-specification:'Open Sans Bold';letter-spacing:0px"
         id="path175" />
      <path
         d="M 11.355203,174.34499 11.00695,173.4478 h -0.04722 q -0.4545,0.57255 -0.938512,0.79685 -0.4781094,0.2184 -1.2513484,0.2184 -0.9503166,0 -1.4992573,-0.54304 -0.5430381,-0.54304 -0.5430381,-1.54648 0,-1.05066 0.7319209,-1.54648 0.7378235,-0.50172 2.219373,-0.55484 l 1.1451019,-0.0354 v -0.28922 q 0,-1.00344 -1.0270501,-1.00344 -0.7909468,0 -1.8593152,0.47811 L 7.3414433,168.2063 q 1.1391995,-0.59616 2.5263077,-0.59616 1.328082,0 2.036393,0.57846 0.70831,0.57845 0.70831,1.75897 v 4.39742 z m -0.531233,-3.05754 -0.696505,0.0236 q -0.7850444,0.0236 -1.1687126,0.28333 -0.3836682,0.25971 -0.3836682,0.79095 0,0.76143 0.873583,0.76143 0.6256748,0 0.9975378,-0.36006 0.377765,-0.36006 0.377765,-0.95622 z"
         style="font-style:normal;font-variant:normal;font-weight:bold;font-stretch:normal;font-size:12.0885px;font-family:'Open Sans';-inkscape-font-specification:'Open Sans Bold';letter-spacing:0px"
         id="path177" />
      <path
         d="m 18.149083,167.62195 q 0.36596,0 0.607966,0.0531 l -0.135759,1.68814 q -0.218396,-0.059 -0.531233,-0.059 -0.861778,0 -1.34579,0.4427 -0.47811,0.44269 -0.47811,1.23954 v 3.35857 h -1.800289 v -6.59909 h 1.363498 l 0.265616,1.10969 h 0.08854 q 0.306935,-0.55485 0.826362,-0.89129 0.525331,-0.34235 1.1392,-0.34235 z"
         style="font-style:normal;font-variant:normal;font-weight:bold;font-stretch:normal;font-size:12.0885px;font-family:'Open Sans';-inkscape-font-specification:'Open Sans Bold';letter-spacing:0px"
         id="path179" />
      <path
         d="m 22.735397,173.02872 q 0.472207,0 1.133297,-0.20659 v 1.33988 q -0.672895,0.30104 -1.652725,0.30104 -1.080173,0 -1.57599,-0.54304 -0.489915,-0.54894 -0.489915,-1.64092 v -3.1815 h -0.861778 v -0.76143 l 0.991635,-0.60206 0.519427,-1.39301 h 1.151005 v 1.40481 h 1.84751 v 1.35169 h -1.84751 v 3.1815 q 0,0.38367 0.212493,0.56665 0.218396,0.18298 0.572551,0.18298 z"
         style="font-style:normal;font-variant:normal;font-weight:bold;font-stretch:normal;font-size:12.0885px;font-family:'Open Sans';-inkscape-font-specification:'Open Sans Bold';letter-spacing:0px"
         id="path181" />
      <path
         d="m 25.125943,166.04005 q 0,-0.87948 0.97983,-0.87948 0.979829,0 0.979829,0.87948 0,0.41909 -0.247908,0.65519 -0.242007,0.2302 -0.731921,0.2302 -0.97983,0 -0.97983,-0.88539 z m 1.877023,8.30494 h -1.800289 v -6.59909 h 1.800289 z"
         style="font-style:normal;font-variant:normal;font-weight:bold;font-stretch:normal;font-size:12.0885px;font-family:'Open Sans';-inkscape-font-specification:'Open Sans Bold';letter-spacing:0px"
         id="path183" />
    </g>
    <g
       aria-label=" Türkiye"
       transform="matrix(40.258531,0,0,40.258531,-3084.5992,-11549.753)"
       id="text1496-5"
       style="font-style:normal;font-variant:normal;font-weight:normal;font-stretch:normal;font-size:10.5833px;line-height:0.95;font-family:'Open Sans';-inkscape-font-specification:'Open Sans';white-space:pre;shape-inside:url(#rect1498-7);fill:#ffffff;fill-opacity:1;stroke:none">
      <path
         d="m -43.945647,183.29123 h -0.966249 v -5.0819 h -1.738439 v -0.82879 h 4.443127 v 0.82879 h -1.738439 z"
         style="font-style:normal;font-variant:normal;font-weight:600;font-stretch:normal;font-size:8.27982px;font-family:'Open Sans';-inkscape-font-specification:'Open Sans Semi-Bold';fill:#ffffff"
         id="path186" />
      <path
         d="m -38.249228,183.29123 -0.133415,-0.58622 h -0.04852 q -0.198101,0.31131 -0.566003,0.48919 -0.363859,0.17789 -0.832833,0.17789 -0.812619,0 -1.212865,-0.40429 -0.400245,-0.40429 -0.400245,-1.22499 v -2.92301 h 0.958163 v 2.75725 q 0,0.51345 0.21023,0.77219 0.21023,0.2547 0.658989,0.2547 0.598347,0 0.877306,-0.35577 0.283001,-0.35982 0.283001,-1.20074 v -2.22763 h 0.95412 v 4.47143 z m -2.490415,-5.65599 q 0,-0.25066 0.133415,-0.35982 0.137458,-0.1132 0.331517,-0.1132 0.214272,0 0.339602,0.12533 0.129372,0.12533 0.129372,0.34769 0,0.21427 -0.129372,0.34365 -0.129372,0.12937 -0.339602,0.12937 -0.194059,0 -0.331517,-0.11725 -0.133415,-0.11724 -0.133415,-0.35577 z m 1.588853,0 q 0,-0.25066 0.133415,-0.35982 0.137458,-0.1132 0.331516,-0.1132 0.214273,0 0.343645,0.12533 0.129372,0.12533 0.129372,0.34769 0,0.21832 -0.133415,0.34769 -0.133415,0.12533 -0.339602,0.12533 -0.194058,0 -0.331516,-0.11725 -0.133415,-0.11724 -0.133415,-0.35577 z"
         style="font-style:normal;font-variant:normal;font-weight:600;font-stretch:normal;font-size:8.27982px;font-family:'Open Sans';-inkscape-font-specification:'Open Sans Semi-Bold';fill:#ffffff"
         id="path188" />
      <path
         d="m -33.878873,178.73895 q 0.287044,0 0.473017,0.0404 l -0.09299,0.88539 q -0.202144,-0.0485 -0.420459,-0.0485 -0.570046,0 -0.92582,0.37195 -0.351731,0.37194 -0.351731,0.96625 v 2.33678 h -0.950077 v -4.47143 h 0.74389 l 0.12533,0.78837 h 0.04851 q 0.222359,-0.40025 0.578132,-0.63474 0.359817,-0.23448 0.772191,-0.23448 z"
         style="font-style:normal;font-variant:normal;font-weight:600;font-stretch:normal;font-size:8.27982px;font-family:'Open Sans';-inkscape-font-specification:'Open Sans Semi-Bold';fill:#ffffff"
         id="path190" />
      <path
         d="m -31.659331,180.93019 0.537703,-0.67112 1.350322,-1.43927 h 1.095621 l -1.799082,1.92037 1.912282,2.55106 h -1.115835 l -1.435222,-1.9608 -0.521532,0.42855 v 1.53225 h -0.941991 v -6.29072 h 0.941991 v 3.06855 l -0.04852,0.86113 z"
         style="font-style:normal;font-variant:normal;font-weight:600;font-stretch:normal;font-size:8.27982px;font-family:'Open Sans';-inkscape-font-specification:'Open Sans Semi-Bold';fill:#ffffff"
         id="path192" />
      <path
         d="m -26.892776,183.29123 h -0.950077 v -4.47143 h 0.950077 z m -1.006677,-5.65599 q 0,-0.2547 0.137458,-0.39216 0.141501,-0.13746 0.400245,-0.13746 0.250659,0 0.388117,0.13746 0.141501,0.13746 0.141501,0.39216 0,0.24257 -0.141501,0.38407 -0.137458,0.13746 -0.388117,0.13746 -0.258744,0 -0.400245,-0.13746 -0.137458,-0.1415 -0.137458,-0.38407 z"
         style="font-style:normal;font-variant:normal;font-weight:600;font-stretch:normal;font-size:8.27982px;font-family:'Open Sans';-inkscape-font-specification:'Open Sans Semi-Bold';fill:#ffffff"
         id="path194" />
      <path
         d="m -26.213572,178.8198 h 1.034978 l 0.909648,2.53489 q 0.206187,0.54175 0.274916,1.01881 h 0.03234 q 0.03639,-0.22236 0.133415,-0.53771 0.09703,-0.31938 1.026892,-3.01599 h 1.026892 l -1.912283,5.06573 q -0.521532,1.3948 -1.738439,1.3948 -0.315344,0 -0.614518,-0.0687 v -0.75198 q 0.214273,0.0485 0.489189,0.0485 0.68729,0 0.966249,-0.79645 l 0.165758,-0.42046 z"
         style="font-style:normal;font-variant:normal;font-weight:600;font-stretch:normal;font-size:8.27982px;font-family:'Open Sans';-inkscape-font-specification:'Open Sans Semi-Bold';fill:#ffffff"
         id="path196" />
      <path
         d="m -19.142571,183.37209 q -1.043063,0 -1.633324,-0.60643 -0.586218,-0.61048 -0.586218,-1.6778 0,-1.09562 0.545789,-1.72227 0.545789,-0.62664 1.499909,-0.62664 0.885391,0 1.398837,0.5377 0.513446,0.5377 0.513446,1.47969 v 0.51345 h -2.979603 q 0.02021,0.6509 0.35173,1.00264 0.331516,0.34768 0.933906,0.34768 0.396202,0 0.735804,-0.0728 0.343645,-0.0768 0.735804,-0.25066 v 0.77219 q -0.347687,0.16576 -0.703461,0.23449 -0.355773,0.0687 -0.812619,0.0687 z m -0.173844,-3.91351 q -0.452803,0 -0.727718,0.28704 -0.270873,0.28705 -0.323431,0.83688 h 2.029526 q -0.0081,-0.55387 -0.26683,-0.83688 -0.258744,-0.28704 -0.711547,-0.28704 z"
         style="font-style:normal;font-variant:normal;font-weight:600;font-stretch:normal;font-size:8.27982px;font-family:'Open Sans';-inkscape-font-specification:'Open Sans Semi-Bold';fill:#ffffff"
         id="path198" />
    </g>
  </g>
</svg>
